:SAMPLES-PER-SECOND 30
:FULLY-SPECIFIED
:DEGREES
63
root  -18.1685 39.8009 -9.06517 131.348 82.9929 136.329
RightUpLeg  -14.9461 1.55705 -9.05274
RightLeg  58.9382 -2.34447 -4.67348
RightFoot  5.89842 -0.612918 4.29613
RightToes  0.000482159 0.542163 -0.142577
Spine  11.6236 -0.399097 -3.1757
Spine1  9.51614 -0.325543 -1.93546
HEad  6.75356 1.25305 -3.2965
LeftShoulder1  6.21962 -9.64279 -40.9834
LeftArm  -10.7754 21.3979 -31.374
LeftForeArm  32.9207 -19.3852 -3.33256
LeftHand  -0.25398 0.0180481 5.50724
RightShoulder  4.46762 7.75233 33.7442
RightArm  2.12066 -15.737 41.8864
RightForeArm  10.7974 15.9909 6.22225
RightHand  -0.668817 -0.32355 -15.2792
LeftUpLeg  -2.55239 12.6935 -9.64943
LeftLeg  16.0528 10.8552 0.0527887
LeftFoot  -9.88578 -0.0157605 5.95891
LeftToes  1.06246e-005 4.65855e-005 -8.18503e-006
64
root  -16.7695 39.9634 -9.37761 142.154 82.1948 147.253
RightUpLeg  -18.0137 1.66829 -7.79131
RightLeg  52.6168 -3.37236 -5.10632
RightFoot  4.0693 -0.387634 3.08987
RightToes  0.000482159 0.542163 -0.142577
Spine  11.9579 -0.894782 -3.38072
Spine1  9.31916 -1.28968 -0.516964
HEad  7.46034 0.514839 -2.57234
LeftShoulder1  6.29332 -9.73191 -41.2075
LeftArm  -9.13398 19.2472 -31.1897
LeftForeArm  32.2845 -22.8733 -3.32331
LeftHand  -0.25398 0.0180481 5.50724
RightShoulder  4.37311 7.60555 33.4199
RightArm  5.355 -17.1753 41.2684
RightForeArm  5.88951 18.9588 5.47601
RightHand  -0.65819 -0.39239 -15.2337
LeftUpLeg  1.2327 8.0924 -8.64558
LeftLeg  13.6531 13.8571 -1.46939
LeftFoot  -10.795 0.0368775 5.83302
LeftToes  1.06246e-005 4.65855e-005 -8.18503e-006
65
root  -15.3564 39.9485 -9.66597 148.697 81.1354 153.933
RightUpLeg  -19.9919 1.21689 -7.0007
RightLeg  44.0414 -4.60174 -5.03901
RightFoot  2.29417 -0.422945 3.66957
RightToes  0.000482159 0.542163 -0.142577
Spine  12.2552 -1.23488 -3.8745
Spine1  9.20586 -2.06219 0.65413
HEad  7.89548 -0.506622 -1.82334
LeftShoulder1  6.39457 -9.87526 -41.4402
LeftArm  -7.93304 16.526 -30.558
LeftForeArm  32.9577 -25.8772 -3.78905
LeftHand  -0.25398 0.0180481 5.50724
RightShoulder  4.307 7.47425 33.2884
RightArm  6.83452 -18.0339 40.5939
RightForeArm  3.13723 21.1033 4.98826
RightHand  -0.701575 -0.272736 -15.8698
LeftUpLeg  4.46568 5.60392 -8.2579
LeftLeg  12.3558 14.9996 -2.35805
LeftFoot  -12.4593 0.125377 5.27141
LeftToes  1.06246e-005 4.65855e-005 -8.18503e-006
66
root  -13.8779 39.7437 -9.95171 150.356 79.9769 155.691
RightUpLeg  -20.9663 -0.869977 -6.47072
RightLeg  33.8287 -5.58076 -4.28179
RightFoot  1.30973 -0.454604 4.17314
RightToes  0.000482159 0.542163 -0.142577
Spine  12.2402 -1.39035 -4.91231
Spine1  9.36363 -2.62099 1.63866
HEad  7.98337 -1.5571 -1.25991
LeftShoulder1  6.5087 -10.0592 -41.6222
LeftArm  -6.96588 13.3146 -29.9063
LeftForeArm  34.0827 -28.1625 -4.23813
LeftHand  -0.25398 0.0180481 5.50724
RightShoulder  4.21768 7.32277 33.0127
RightArm  6.76312 -18.1607 40.3004
RightForeArm  2.64006 22.0251 4.86229
RightHand  -0.724106 -0.23114 -16.2519
LeftUpLeg  7.15181 4.55339 -8.55877
LeftLeg  12.4216 14.9555 -2.57195
LeftFoot  -14.6634 0.22563 4.70678
LeftToes  1.06246e-005 4.65855e-005 -8.18503e-006
67
root  -12.3418 39.5107 -10.2563 150.006 78.7502 155.276
RightUpLeg  -21.125 -6.03373 -5.33503
RightLeg  22.0527 -4.68162 -2.38184
RightFoot  0.954769 -0.464085 4.36351
RightToes  0.000482159 0.542163 -0.142577
Spine  11.8124 -1.48641 -6.17292
Spine1  9.80579 -3.13424 2.88167
HEad  7.88213 -2.65121 -0.869292
LeftShoulder1  6.62835 -10.2747 -41.7344
LeftArm  -5.98113 9.85638 -29.3992
LeftForeArm  34.8325 -29.4527 -4.48567
LeftHand  -0.25398 0.0180481 5.50724
RightShoulder  4.13613 7.22076 32.6241
RightArm  5.97319 -17.8275 40.3034
RightForeArm  3.18942 21.9161 4.84664
RightHand  -0.672586 -0.455811 -15.7516
LeftUpLeg  9.96981 3.86576 -9.31201
LeftLeg  12.0462 14.7208 -2.64129
LeftFoot  -16.2965 0.295637 4.55428
LeftToes  1.06246e-005 4.65855e-005 -8.18503e-006
68
root  -10.7656 39.2592 -10.5691 149.719 77.466 154.8
RightUpLeg  -20.4732 -11.0397 -4.51069
RightLeg  9.46273 -3.88794 0.978385
RightFoot  0.712324 -0.619317 5.91174
RightToes  0.000482159 0.542163 -0.142577
Spine  11.2611 -1.61805 -7.20527
Spine1  10.1813 -3.63845 4.10494
HEad  7.9197 -3.8639 -0.571543
LeftShoulder1  6.74466 -10.5183 -41.7305
LeftArm  -4.63638 6.38446 -29.0599
LeftForeArm  34.8666 -29.5668 -4.51036
LeftHand  -0.25398 0.0180481 5.50724
RightShoulder  4.12325 7.23661 32.4469
RightArm  4.69099 -17.5106 40.1851
RightForeArm  3.80577 21.2797 4.88929
RightHand  -0.600313 -0.795607 -15.0652
LeftUpLeg  13.0155 3.7099 -9.82024
LeftLeg  11.181 13.8931 -2.9637
LeftFoot  -17.7543 0.332085 4.04877
LeftToes  1.06246e-005 4.65855e-005 -8.18503e-006
69
root  -9.10033 38.8824 -10.8859 149.213 76.3208 154.251
RightUpLeg  -18.9592 -8.19882 -6.60516
RightLeg  -1.0144 -10.1891 5.33465
RightFoot  -0.317071 -0.781921 8.0913
RightToes  0.000482159 0.542163 -0.142577
Spine  10.9393 -1.73098 -7.91008
Spine1  10.1688 -3.9701 4.8463
HEad  8.12456 -5.06879 -0.426159
LeftShoulder1  6.83336 -10.7534 -41.5729
LeftArm  -3.27463 3.19628 -29.059
LeftForeArm  34.6074 -28.8069 -4.35414
LeftHand  -0.25398 0.0180481 5.50724
RightShoulder  4.16607 7.32911 32.5146
RightArm  2.87188 -17.3084 39.8748
RightForeArm  4.35678 20.4031 5.00305
RightHand  -0.562455 -1.04606 -14.888
LeftUpLeg  15.9428 4.56284 -9.65971
LeftLeg  11.4329 11.7908 -3.37341
LeftFoot  -19.7948 0.321369 2.7517
LeftToes  1.06246e-005 4.65855e-005 -8.18503e-006
